<mxfile host="app.diagrams.net" modified="2020-04-17T17:51:55.473Z" agent="5.0 (Windows NT 10.0; Win64; x64) AppleWebKit/537.36 (KHTML, like Gecko) Chrome/80.0.3987.163 Safari/537.36" etag="L1nXElY6sbPONTgdd_OK" version="12.9.13" type="github" pages="3">
  <diagram id="_le0lB8lklZVR6vzBHbD" name="Docker_Flow">
    <mxGraphModel dx="782" dy="738" grid="1" gridSize="10" guides="1" tooltips="1" connect="1" arrows="1" fold="1" page="1" pageScale="1" pageWidth="850" pageHeight="1100" math="0" shadow="0">
      <root>
        <mxCell id="0" />
        <mxCell id="1" parent="0" />
        <mxCell id="86PaRyYs46iyCv6pRzgd-1" value="" style="edgeStyle=orthogonalEdgeStyle;rounded=0;orthogonalLoop=1;jettySize=auto;html=1;fontFamily=Helvetica;fontSize=17;strokeWidth=2;" parent="1" source="i44b39BUdMLtEUs7VdTV-1" target="i44b39BUdMLtEUs7VdTV-3" edge="1">
          <mxGeometry relative="1" as="geometry" />
        </mxCell>
        <mxCell id="i44b39BUdMLtEUs7VdTV-1" value="" style="rounded=0;whiteSpace=wrap;html=1;strokeWidth=2;" parent="1" vertex="1">
          <mxGeometry x="190" y="140" width="240" height="60" as="geometry" />
        </mxCell>
        <mxCell id="i44b39BUdMLtEUs7VdTV-2" value="" style="rounded=0;whiteSpace=wrap;html=1;strokeWidth=2;" parent="1" vertex="1">
          <mxGeometry x="190" y="360" width="240" height="60" as="geometry" />
        </mxCell>
        <mxCell id="86PaRyYs46iyCv6pRzgd-8" value="" style="edgeStyle=orthogonalEdgeStyle;rounded=0;orthogonalLoop=1;jettySize=auto;html=1;fontFamily=Helvetica;fontSize=17;strokeWidth=2;" parent="1" source="i44b39BUdMLtEUs7VdTV-3" edge="1">
          <mxGeometry relative="1" as="geometry">
            <mxPoint x="310" y="360" as="targetPoint" />
          </mxGeometry>
        </mxCell>
        <mxCell id="i44b39BUdMLtEUs7VdTV-3" value="" style="rounded=0;whiteSpace=wrap;html=1;strokeWidth=2;" parent="1" vertex="1">
          <mxGeometry x="190" y="250" width="240" height="60" as="geometry" />
        </mxCell>
        <mxCell id="i44b39BUdMLtEUs7VdTV-4" value="" style="html=1;shadow=0;dashed=0;align=center;verticalAlign=middle;shape=mxgraph.arrows2.arrow;dy=0.6;dx=40;direction=south;notch=0;strokeWidth=2;fillColor=#000000;" parent="1" vertex="1">
          <mxGeometry x="140" y="140" width="20" height="270" as="geometry" />
        </mxCell>
        <mxCell id="i44b39BUdMLtEUs7VdTV-5" value="Creating a Dockerfile" style="text;html=1;strokeColor=none;fillColor=none;align=center;verticalAlign=middle;whiteSpace=wrap;rounded=0;strokeWidth=1;fontStyle=1;fontSize=19;fontFamily=Helvetica;" parent="1" vertex="1">
          <mxGeometry x="190" y="100" width="240" height="20" as="geometry" />
        </mxCell>
        <mxCell id="i44b39BUdMLtEUs7VdTV-6" value="Flow" style="text;html=1;strokeColor=none;fillColor=none;align=center;verticalAlign=middle;whiteSpace=wrap;rounded=0;strokeWidth=1;fontStyle=0;fontSize=17;fontFamily=Helvetica;" parent="1" vertex="1">
          <mxGeometry x="80" y="140" width="70" height="20" as="geometry" />
        </mxCell>
        <mxCell id="i44b39BUdMLtEUs7VdTV-7" value="Specify a base image" style="text;html=1;strokeColor=none;fillColor=none;align=center;verticalAlign=middle;whiteSpace=wrap;rounded=0;strokeWidth=1;fontStyle=0;fontSize=17;fontFamily=Helvetica;" parent="1" vertex="1">
          <mxGeometry x="205" y="160" width="210" height="20" as="geometry" />
        </mxCell>
        <mxCell id="i44b39BUdMLtEUs7VdTV-8" value="Run some commands to install additional programs" style="text;html=1;strokeColor=none;fillColor=none;align=center;verticalAlign=middle;whiteSpace=wrap;rounded=0;strokeWidth=1;fontStyle=0;fontSize=17;fontFamily=Helvetica;" parent="1" vertex="1">
          <mxGeometry x="205" y="270" width="210" height="20" as="geometry" />
        </mxCell>
        <mxCell id="i44b39BUdMLtEUs7VdTV-9" value="Specify a command to run on container startup" style="text;html=1;strokeColor=none;fillColor=none;align=center;verticalAlign=middle;whiteSpace=wrap;rounded=0;strokeWidth=1;fontStyle=0;fontSize=17;fontFamily=Helvetica;" parent="1" vertex="1">
          <mxGeometry x="205" y="380" width="210" height="20" as="geometry" />
        </mxCell>
      </root>
    </mxGraphModel>
  </diagram>
  <diagram id="t4uxJWqt9roKmLD98vfO" name="Docker Compose command">
    <mxGraphModel dx="782" dy="738" grid="1" gridSize="10" guides="1" tooltips="1" connect="1" arrows="1" fold="1" page="1" pageScale="1" pageWidth="850" pageHeight="1100" math="0" shadow="0">
      <root>
        <mxCell id="G6hYTnezbfF7C8IR-cRF-0" />
        <mxCell id="G6hYTnezbfF7C8IR-cRF-1" parent="G6hYTnezbfF7C8IR-cRF-0" />
        <mxCell id="rE-JfkabKVOgnmR9AwR5-0" value="docker run myimage" style="rounded=0;whiteSpace=wrap;html=1;fontSize=15;fontStyle=1" vertex="1" parent="G6hYTnezbfF7C8IR-cRF-1">
          <mxGeometry x="100" y="160" width="220" height="60" as="geometry" />
        </mxCell>
        <mxCell id="rE-JfkabKVOgnmR9AwR5-1" value="docker-compose up" style="rounded=0;whiteSpace=wrap;html=1;fontSize=15;fontStyle=1;fillColor=#dae8fc;strokeColor=#6c8ebf;" vertex="1" parent="G6hYTnezbfF7C8IR-cRF-1">
          <mxGeometry x="420" y="160" width="220" height="60" as="geometry" />
        </mxCell>
        <mxCell id="rE-JfkabKVOgnmR9AwR5-2" value="docker run myimage" style="rounded=0;whiteSpace=wrap;html=1;fontSize=15;fontStyle=1" vertex="1" parent="G6hYTnezbfF7C8IR-cRF-1">
          <mxGeometry x="110" y="350" width="220" height="60" as="geometry" />
        </mxCell>
        <mxCell id="rE-JfkabKVOgnmR9AwR5-3" value="docker build ." style="rounded=0;whiteSpace=wrap;html=1;fontSize=15;fontStyle=1" vertex="1" parent="G6hYTnezbfF7C8IR-cRF-1">
          <mxGeometry x="110" y="290" width="220" height="60" as="geometry" />
        </mxCell>
        <mxCell id="rE-JfkabKVOgnmR9AwR5-4" value="docker-compose up --build" style="rounded=0;whiteSpace=wrap;html=1;fontSize=15;fontStyle=1;fillColor=#dae8fc;strokeColor=#6c8ebf;" vertex="1" parent="G6hYTnezbfF7C8IR-cRF-1">
          <mxGeometry x="420" y="320" width="220" height="60" as="geometry" />
        </mxCell>
        <mxCell id="rE-JfkabKVOgnmR9AwR5-5" value="" style="shape=curlyBracket;whiteSpace=wrap;html=1;rounded=1;fontSize=15;direction=west;strokeWidth=2;" vertex="1" parent="G6hYTnezbfF7C8IR-cRF-1">
          <mxGeometry x="350" y="160" width="50" height="60" as="geometry" />
        </mxCell>
        <mxCell id="rE-JfkabKVOgnmR9AwR5-6" value="" style="shape=curlyBracket;whiteSpace=wrap;html=1;rounded=1;fontSize=15;direction=west;strokeWidth=2;" vertex="1" parent="G6hYTnezbfF7C8IR-cRF-1">
          <mxGeometry x="350" y="290" width="50" height="120" as="geometry" />
        </mxCell>
      </root>
    </mxGraphModel>
  </diagram>
  <diagram id="pWLmvafTG9KJcAYdtlvK" name="Status Codes_Restart Policies">
    <mxGraphModel dx="782" dy="738" grid="1" gridSize="10" guides="1" tooltips="1" connect="1" arrows="1" fold="1" page="1" pageScale="1" pageWidth="850" pageHeight="1100" math="0" shadow="0">
      <root>
        <mxCell id="f-gdMJfrRjp-eROcDMJl-0" />
        <mxCell id="f-gdMJfrRjp-eROcDMJl-1" parent="f-gdMJfrRjp-eROcDMJl-0" />
        <mxCell id="f-gdMJfrRjp-eROcDMJl-2" value="0" style="rounded=0;whiteSpace=wrap;html=1;strokeWidth=2;fontSize=17;fontStyle=1;fillColor=#dae8fc;strokeColor=#6c8ebf;" vertex="1" parent="f-gdMJfrRjp-eROcDMJl-1">
          <mxGeometry x="80" y="90" width="160" height="60" as="geometry" />
        </mxCell>
        <mxCell id="f-gdMJfrRjp-eROcDMJl-3" value="1,2,3, etc" style="rounded=0;whiteSpace=wrap;html=1;strokeWidth=2;fontSize=17;fontStyle=1;fillColor=#dae8fc;strokeColor=#6c8ebf;" vertex="1" parent="f-gdMJfrRjp-eROcDMJl-1">
          <mxGeometry x="80" y="150" width="160" height="60" as="geometry" />
        </mxCell>
        <mxCell id="f-gdMJfrRjp-eROcDMJl-4" value="We exited and everything is OK" style="rounded=0;whiteSpace=wrap;html=1;strokeWidth=2;fontSize=16;align=left;" vertex="1" parent="f-gdMJfrRjp-eROcDMJl-1">
          <mxGeometry x="240" y="90" width="310" height="60" as="geometry" />
        </mxCell>
        <mxCell id="f-gdMJfrRjp-eROcDMJl-5" value="We exited because something went wrong!" style="rounded=0;whiteSpace=wrap;html=1;strokeWidth=2;fontSize=16;align=left;" vertex="1" parent="f-gdMJfrRjp-eROcDMJl-1">
          <mxGeometry x="240" y="150" width="310" height="60" as="geometry" />
        </mxCell>
        <mxCell id="f-gdMJfrRjp-eROcDMJl-6" value="Status Codes" style="text;html=1;strokeColor=none;fillColor=none;align=center;verticalAlign=middle;whiteSpace=wrap;rounded=0;fontSize=23;fontStyle=1" vertex="1" parent="f-gdMJfrRjp-eROcDMJl-1">
          <mxGeometry x="60" y="60" width="180" height="20" as="geometry" />
        </mxCell>
        <mxCell id="f-gdMJfrRjp-eROcDMJl-7" value="&quot;no&quot;" style="rounded=0;whiteSpace=wrap;html=1;strokeWidth=2;fontSize=17;fontStyle=1;fillColor=#dae8fc;strokeColor=#6c8ebf;" vertex="1" parent="f-gdMJfrRjp-eROcDMJl-1">
          <mxGeometry x="80" y="300" width="160" height="60" as="geometry" />
        </mxCell>
        <mxCell id="f-gdMJfrRjp-eROcDMJl-8" value="always" style="rounded=0;whiteSpace=wrap;html=1;strokeWidth=2;fontSize=17;fontStyle=1;fillColor=#dae8fc;strokeColor=#6c8ebf;" vertex="1" parent="f-gdMJfrRjp-eROcDMJl-1">
          <mxGeometry x="80" y="360" width="160" height="60" as="geometry" />
        </mxCell>
        <mxCell id="f-gdMJfrRjp-eROcDMJl-9" value="Restart Policies" style="text;html=1;strokeColor=none;fillColor=none;align=center;verticalAlign=middle;whiteSpace=wrap;rounded=0;fontSize=23;fontStyle=1" vertex="1" parent="f-gdMJfrRjp-eROcDMJl-1">
          <mxGeometry x="80" y="270" width="180" height="20" as="geometry" />
        </mxCell>
        <mxCell id="f-gdMJfrRjp-eROcDMJl-10" value="Never attempt to restart this container if it stops or crashes" style="rounded=0;whiteSpace=wrap;html=1;strokeWidth=2;fontSize=16;align=left;" vertex="1" parent="f-gdMJfrRjp-eROcDMJl-1">
          <mxGeometry x="240" y="300" width="310" height="60" as="geometry" />
        </mxCell>
        <mxCell id="f-gdMJfrRjp-eROcDMJl-11" value="if container stops *for any reason* always attempt to restart it" style="rounded=0;whiteSpace=wrap;html=1;strokeWidth=2;fontSize=16;align=left;" vertex="1" parent="f-gdMJfrRjp-eROcDMJl-1">
          <mxGeometry x="240" y="360" width="310" height="60" as="geometry" />
        </mxCell>
        <mxCell id="f-gdMJfrRjp-eROcDMJl-12" value="Only restart if the container stops with an error code (non-zero)" style="rounded=0;whiteSpace=wrap;html=1;strokeWidth=2;fontSize=16;align=left;" vertex="1" parent="f-gdMJfrRjp-eROcDMJl-1">
          <mxGeometry x="240" y="420" width="310" height="60" as="geometry" />
        </mxCell>
        <mxCell id="f-gdMJfrRjp-eROcDMJl-13" value="Always restart unless we (the developers) forcible stop it" style="rounded=0;whiteSpace=wrap;html=1;strokeWidth=2;fontSize=16;align=left;" vertex="1" parent="f-gdMJfrRjp-eROcDMJl-1">
          <mxGeometry x="240" y="480" width="310" height="60" as="geometry" />
        </mxCell>
        <mxCell id="f-gdMJfrRjp-eROcDMJl-14" value="on-failure" style="rounded=0;whiteSpace=wrap;html=1;strokeWidth=2;fontSize=17;fontStyle=1;fillColor=#dae8fc;strokeColor=#6c8ebf;" vertex="1" parent="f-gdMJfrRjp-eROcDMJl-1">
          <mxGeometry x="80" y="420" width="160" height="60" as="geometry" />
        </mxCell>
        <mxCell id="f-gdMJfrRjp-eROcDMJl-15" value="unless-stopped" style="rounded=0;whiteSpace=wrap;html=1;strokeWidth=2;fontSize=17;fontStyle=1;fillColor=#dae8fc;strokeColor=#6c8ebf;" vertex="1" parent="f-gdMJfrRjp-eROcDMJl-1">
          <mxGeometry x="80" y="480" width="160" height="60" as="geometry" />
        </mxCell>
      </root>
    </mxGraphModel>
  </diagram>
</mxfile>
